solid test2.stl
facet normal 0.013110633939504623 -0.9999140501022339 -2.5207994324841557e-16
outer loop
vertex -24.717548370361328 44.91890335083008 -14.0
vertex -25.84490203857422 44.90412139892578 14.0
vertex -25.84490203857422 44.90412139892578 -14.0
endloop
endfacet
facet normal -0.12793944776058197 -0.991782009601593 0.0
outer loop
vertex -31.206409454345703 41.4471321105957 -14.0
vertex -29.71873664855957 41.25522232055664 14.0
vertex -31.206409454345703 41.4471321105957 -7.0
endloop
endfacet
facet normal -0.12793944776058197 -0.991782009601593 0.0
outer loop
vertex -29.71873664855957 41.25522232055664 -14.0
vertex -29.71873664855957 41.25522232055664 14.0
vertex -31.206409454345703 41.4471321105957 -14.0
endloop
endfacet
facet normal 0.8560432195663452 -0.5169042944908142 0.0
outer loop
vertex -28.653478622436523 43.01939010620117 -14.0
vertex -29.71873664855957 41.25522232055664 14.0
vertex -29.71873664855957 41.25522232055664 -14.0
endloop
endfacet
facet normal 0.8560432195663452 -0.5169042944908142 0.0
outer loop
vertex -28.653478622436523 43.01939010620117 14.0
vertex -29.71873664855957 41.25522232055664 14.0
vertex -28.653478622436523 43.01939010620117 -14.0
endloop
endfacet
facet normal 0.5623288154602051 -0.8269137144088745 -1.3805754431914057e-14
outer loop
vertex -26.96786117553711 44.55419158935547 -14.0
vertex -27.94049072265625 43.89277267456055 14.0
vertex -27.94049072265625 43.89277267456055 -14.0
endloop
endfacet
facet normal 0.5623288154602051 -0.8269137144088745 -7.079196308941533e-17
outer loop
vertex -26.96786117553711 44.55419158935547 14.0
vertex -27.94049072265625 43.89277267456055 14.0
vertex -26.96786117553711 44.55419158935547 -14.0
endloop
endfacet
facet normal 0.2975020706653595 -0.9547211527824402 -3.7747844623375583e-17
outer loop
vertex -25.84490203857422 44.90412139892578 -14.0
vertex -26.96786117553711 44.55419158935547 14.0
vertex -26.96786117553711 44.55419158935547 -14.0
endloop
endfacet
facet normal 0.2975020706653595 -0.9547211527824402 -2.0394826216764541e-16
outer loop
vertex -25.84490203857422 44.90412139892578 14.0
vertex -26.96786117553711 44.55419158935547 14.0
vertex -25.84490203857422 44.90412139892578 -14.0
endloop
endfacet
facet normal 0.7746513485908508 -0.6323885917663574 1.2615943344531939e-14
outer loop
vertex -28.653478622436523 43.01939010620117 14.0
vertex -27.94049072265625 43.89277267456055 -14.0
vertex -27.94049072265625 43.89277267456055 14.0
endloop
endfacet
facet normal 0.7746513485908508 -0.6323885917663574 0.0
outer loop
vertex -28.653478622436523 43.01939010620117 -14.0
vertex -27.94049072265625 43.89277267456055 -14.0
vertex -28.653478622436523 43.01939010620117 14.0
endloop
endfacet
facet normal -0.12793944776058197 -0.991782009601593 0.0
outer loop
vertex -31.206409454345703 41.4471321105957 -7.0
vertex -29.71873664855957 41.25522232055664 14.0
vertex -31.206409454345703 41.4471321105957 -1.7763568394002505e-15
endloop
endfacet
facet normal 0.013110633939504623 -0.9999140501022339 0.0
outer loop
vertex -24.717548370361328 44.91890335083008 14.0
vertex -25.84490203857422 44.90412139892578 14.0
vertex -24.717548370361328 44.91890335083008 -14.0
endloop
endfacet
facet normal -0.12793944776058197 -0.991782009601593 -0.0
outer loop
vertex -19.19217872619629 44.20613098144531 -14.0
vertex -24.717548370361328 44.91890335083008 14.0
vertex -24.717548370361328 44.91890335083008 -14.0
endloop
endfacet
facet normal -0.12793944776058197 -0.991782009601593 0.0
outer loop
vertex -19.19217872619629 44.20613098144531 14.0
vertex -24.717548370361328 44.91890335083008 14.0
vertex -19.19217872619629 44.20613098144531 -14.0
endloop
endfacet
facet normal -0.9984344840049744 -0.055933717638254166 -0.0
outer loop
vertex -18.999765396118164 40.77151870727539 -14.0
vertex -19.19217872619629 44.20613098144531 14.0
vertex -19.19217872619629 44.20613098144531 -14.0
endloop
endfacet
facet normal -0.9984344840049744 -0.055933717638254166 0.0
outer loop
vertex -18.999765396118164 40.77151870727539 14.0
vertex -19.19217872619629 44.20613098144531 14.0
vertex -18.999765396118164 40.77151870727539 -14.0
endloop
endfacet
facet normal 0.055933717638254166 -0.9984344840049744 0.0
outer loop
vertex -6.02011775970459 41.4986572265625 -14.0
vertex -18.999765396118164 40.77151870727539 14.0
vertex -18.999765396118164 40.77151870727539 -14.0
endloop
endfacet
facet normal 0.055933717638254166 -0.9984344840049744 0.0
outer loop
vertex -6.02011775970459 41.4986572265625 14.0
vertex -18.999765396118164 40.77151870727539 14.0
vertex -6.02011775970459 41.4986572265625 -14.0
endloop
endfacet
facet normal 0.991782009601593 -0.12793944776058197 0.0
outer loop
vertex -5.380420207977295 46.45756530761719 -14.0
vertex -6.02011775970459 41.4986572265625 14.0
vertex -6.02011775970459 41.4986572265625 -14.0
endloop
endfacet
facet normal 0.991782009601593 -0.12793944776058197 0.0
outer loop
vertex -5.380420207977295 46.45756530761719 14.0
vertex -6.02011775970459 41.4986572265625 14.0
vertex -5.380420207977295 46.45756530761719 -14.0
endloop
endfacet
facet normal 0.12793944776058197 0.991782009601593 0.0
outer loop
vertex -68.35857391357422 54.581722259521484 -14.0
vertex -5.380420207977295 46.45756530761719 14.0
vertex -5.380420207977295 46.45756530761719 -14.0
endloop
endfacet
facet normal 5.470944725217584e-15 9.018484726776256e-16 1.0
outer loop
vertex -39.37404251098633 40.227901458740234 -7.0
vertex -38.63750457763672 38.714332580566406 -7.0
vertex -39.467586517333984 41.78022003173828 -7.0
endloop
endfacet
facet normal -4.693172920906439e-16 -2.9250284365067334e-16 1.0
outer loop
vertex -32.816749572753906 37.96345520019531 -7.0
vertex -31.720218658447266 39.240562438964844 -7.0
vertex -33.342979431152344 44.88074493408203 -7.0
endloop
endfacet
facet normal -1.3191379835930358e-15 -3.571527392289762e-16 1.0
outer loop
vertex -34.82073974609375 45.36516571044922 -7.0
vertex -32.816749572753906 37.96345520019531 -7.0
vertex -33.342979431152344 44.88074493408203 -7.0
endloop
endfacet
facet normal 5.184973484972087e-16 1.4038162908465218e-16 1.0
outer loop
vertex -34.330322265625 37.22692108154297 -7.0
vertex -32.816749572753906 37.96345520019531 -7.0
vertex -34.82073974609375 45.36516571044922 -7.0
endloop
endfacet
facet normal -6.552892966191502e-18 1.0874146111124154e-16 1.0
outer loop
vertex -36.3730583190918 45.27162170410156 -7.0
vertex -34.330322265625 37.22692108154297 -7.0
vertex -34.82073974609375 45.36516571044922 -7.0
endloop
endfacet
facet normal 5.569866314995625e-16 2.518373741881456e-16 1.0
outer loop
vertex -35.88263702392578 37.13337707519531 -7.0
vertex -34.330322265625 37.22692108154297 -7.0
vertex -36.3730583190918 45.27162170410156 -7.0
endloop
endfacet
facet normal 1.0369946969944173e-15 2.8076325816930436e-16 1.0
outer loop
vertex -37.88663101196289 44.53508758544922 -7.0
vertex -35.88263702392578 37.13337707519531 -7.0
vertex -36.3730583190918 45.27162170410156 -7.0
endloop
endfacet
facet normal -6.595689917965179e-16 -1.785763696144881e-16 1.0
outer loop
vertex -37.36039733886719 37.6177978515625 -7.0
vertex -35.88263702392578 37.13337707519531 -7.0
vertex -37.88663101196289 44.53508758544922 -7.0
endloop
endfacet
facet normal 1.373727827675477e-16 -1.1794923202604292e-16 1.0
outer loop
vertex -38.98316192626953 43.25798034667969 -7.0
vertex -37.36039733886719 37.6177978515625 -7.0
vertex -37.88663101196289 44.53508758544922 -7.0
endloop
endfacet
facet normal -2.0268261759692416e-15 -7.406209392445714e-16 1.0
outer loop
vertex -38.63750457763672 38.714332580566406 -7.0
vertex -37.36039733886719 37.6177978515625 -7.0
vertex -38.98316192626953 43.25798034667969 -7.0
endloop
endfacet
facet normal -3.6147418882930435e-17 -5.891806068192447e-16 1.0
outer loop
vertex -39.467586517333984 41.78022003173828 -7.0
vertex -38.63750457763672 38.714332580566406 -7.0
vertex -38.98316192626953 43.25798034667969 -7.0
endloop
endfacet
facet normal 0.12793944776058197 0.991782009601593 0.0
outer loop
vertex -68.35857391357422 54.581722259521484 14.0
vertex -5.380420207977295 46.45756530761719 14.0
vertex -68.35857391357422 54.581722259521484 -14.0
endloop
endfacet
facet normal -0.3877817988395691 -0.9217512011528015 -0.0
outer loop
vertex -40.70603942871094 42.948265075683594 -14.0
vertex -68.35857391357422 54.581722259521484 14.0
vertex -68.35857391357422 54.581722259521484 -14.0
endloop
endfacet
facet normal -0.3877817988395691 -0.9217512011528015 0.0
outer loop
vertex -40.70603942871094 42.948265075683594 14.0
vertex -68.35857391357422 54.581722259521484 14.0
vertex -40.70603942871094 42.948265075683594 -14.0
endloop
endfacet
facet normal -0.12793944776058197 -0.991782009601593 0.0
outer loop
vertex -39.21836853027344 42.75635528564453 -7.0
vertex -40.70603942871094 42.948265075683594 -14.0
vertex -39.21836853027344 42.75635528564453 -14.0
endloop
endfacet
facet normal -0.12793944776058197 -0.991782009601593 -1.3216940643300532e-16
outer loop
vertex -39.21836853027344 42.75635528564453 -1.7763568394002505e-15
vertex -40.70603942871094 42.948265075683594 -14.0
vertex -39.21836853027344 42.75635528564453 -7.0
endloop
endfacet
facet normal -0.12793944776058197 -0.991782009601593 1.3216940643300532e-16
outer loop
vertex -39.21836853027344 42.75635528564453 7.0
vertex -40.70603942871094 42.948265075683594 -14.0
vertex -39.21836853027344 42.75635528564453 -1.7763568394002505e-15
endloop
endfacet
facet normal -0.12793944776058197 -0.991782009601593 0.0
outer loop
vertex -39.21836853027344 42.75635528564453 14.0
vertex -40.70603942871094 42.948265075683594 -14.0
vertex -39.21836853027344 42.75635528564453 7.0
endloop
endfacet
facet normal -0.12793944776058197 -0.991782009601593 -0.0
outer loop
vertex -40.70603942871094 42.948265075683594 14.0
vertex -40.70603942871094 42.948265075683594 -14.0
vertex -39.21836853027344 42.75635528564453 14.0
endloop
endfacet
facet normal -0.12793944776058197 -0.991782009601593 0.0
outer loop
vertex -31.206409454345703 41.4471321105957 7.0
vertex -29.71873664855957 41.25522232055664 14.0
vertex -31.206409454345703 41.4471321105957 14.0
endloop
endfacet
facet normal -0.12793944776058197 -0.991782009601593 0.0
outer loop
vertex -31.206409454345703 41.4471321105957 -1.7763568394002505e-15
vertex -29.71873664855957 41.25522232055664 14.0
vertex -31.206409454345703 41.4471321105957 7.0
endloop
endfacet
facet normal 0.0 -0.0 1.0
outer loop
vertex -26.96786117553711 44.55419158935547 14.0
vertex -25.84490203857422 44.90412139892578 14.0
vertex -33.390846252441406 44.90681076049805 14.0
endloop
endfacet
facet normal -0.0 0.0 1.0
outer loop
vertex -24.717548370361328 44.91890335083008 14.0
vertex -19.19217872619629 44.20613098144531 14.0
vertex -5.380420207977295 46.45756530761719 14.0
endloop
endfacet
facet normal -0.0 0.0 1.0
outer loop
vertex -68.35857391357422 54.581722259521484 14.0
vertex -24.717548370361328 44.91890335083008 14.0
vertex -5.380420207977295 46.45756530761719 14.0
endloop
endfacet
facet normal -0.0 -0.0 1.0
outer loop
vertex -34.68241882324219 45.344947814941406 14.0
vertex -24.717548370361328 44.91890335083008 14.0
vertex -68.35857391357422 54.581722259521484 14.0
endloop
endfacet
facet normal -1.2879296899261615e-15 -4.69563641035441e-15 1.0
outer loop
vertex -36.0462760925293 45.34073257446289 14.0
vertex -34.68241882324219 45.344947814941406 14.0
vertex -68.35857391357422 54.581722259521484 14.0
endloop
endfacet
facet normal 1.1894562864563367e-15 3.966860273965124e-15 1.0
outer loop
vertex -37.40864181518555 44.8536376953125 14.0
vertex -36.0462760925293 45.34073257446289 14.0
vertex -68.35857391357422 54.581722259521484 14.0
endloop
endfacet
facet normal -2.269689368430126e-16 -5.395015421276288e-16 1.0
outer loop
vertex -40.70603942871094 42.948265075683594 14.0
vertex -37.40864181518555 44.8536376953125 14.0
vertex -68.35857391357422 54.581722259521484 14.0
endloop
endfacet
facet normal 5.504114111915589e-15 -1.0457606833171994e-14 1.0
outer loop
vertex -38.52099609375 43.92845153808594 14.0
vertex -37.40864181518555 44.8536376953125 14.0
vertex -40.70603942871094 42.948265075683594 14.0
endloop
endfacet
facet normal 1.108937334490343e-15 -6.597947260769611e-16 1.0
outer loop
vertex -39.21836853027344 42.75635528564453 14.0
vertex -38.52099609375 43.92845153808594 14.0
vertex -40.70603942871094 42.948265075683594 14.0
endloop
endfacet
facet normal 0.0 -0.0 1.0
outer loop
vertex -25.84490203857422 44.90412139892578 14.0
vertex -24.717548370361328 44.91890335083008 14.0
vertex -34.68241882324219 45.344947814941406 14.0
endloop
endfacet
facet normal -0.0 -0.0 1.0
outer loop
vertex -33.390846252441406 44.90681076049805 14.0
vertex -25.84490203857422 44.90412139892578 14.0
vertex -34.68241882324219 45.344947814941406 14.0
endloop
endfacet
facet normal -5.964635946230842e-17 3.659095511261484e-16 1.0
outer loop
vertex -5.380420207977295 46.45756530761719 14.0
vertex -19.19217872619629 44.20613098144531 14.0
vertex -6.02011775970459 41.4986572265625 14.0
endloop
endfacet
facet normal 0.0 -0.0 1.0
outer loop
vertex -32.254398345947266 44.01138687133789 14.0
vertex -26.96786117553711 44.55419158935547 14.0
vertex -33.390846252441406 44.90681076049805 14.0
endloop
endfacet
facet normal -3.247982246960097e-16 3.1632890107509155e-15 1.0
outer loop
vertex -27.94049072265625 43.89277267456055 14.0
vertex -26.96786117553711 44.55419158935547 14.0
vertex -32.254398345947266 44.01138687133789 14.0
endloop
endfacet
facet normal -4.188843680759716e-16 -2.585788300060038e-16 1.0
outer loop
vertex -31.494407653808594 42.780242919921875 14.0
vertex -27.94049072265625 43.89277267456055 14.0
vertex -32.254398345947266 44.01138687133789 14.0
endloop
endfacet
facet normal 1.8384680713565138e-16 -2.1839685753768066e-15 1.0
outer loop
vertex -28.653478622436523 43.01939010620117 14.0
vertex -27.94049072265625 43.89277267456055 14.0
vertex -31.494407653808594 42.780242919921875 14.0
endloop
endfacet
facet normal 1.1016576024693944e-16 -1.308690361584246e-15 1.0
outer loop
vertex -31.206409454345703 41.4471321105957 14.0
vertex -28.653478622436523 43.01939010620117 14.0
vertex -31.494407653808594 42.780242919921875 14.0
endloop
endfacet
facet normal -2.0950214338273957e-15 2.271944170135717e-15 1.0
outer loop
vertex -29.71873664855957 41.25522232055664 14.0
vertex -28.653478622436523 43.01939010620117 14.0
vertex -31.206409454345703 41.4471321105957 14.0
endloop
endfacet
facet normal -0.549009382724762 -0.8358161449432373 -9.508316009543272e-12
outer loop
vertex -38.28618240356445 38.31477737426758 0.0
vertex -36.8792839050293 37.39065170288086 -7.0
vertex -36.8792839050293 37.39065170288086 0.0
endloop
endfacet
facet normal -0.549009382724762 -0.8358161449432373 -2.5817267770779535e-15
outer loop
vertex -38.28618240356445 38.31477737426758 -7.0
vertex -36.8792839050293 37.39065170288086 -7.0
vertex -38.28618240356445 38.31477737426758 0.0
endloop
endfacet
facet normal -0.8358161449432373 -0.549009382724762 -2.411769880909174e-16
outer loop
vertex -39.21031188964844 39.7216796875 0.0
vertex -38.28618240356445 38.31477737426758 -7.0
vertex -38.28618240356445 38.31477737426758 0.0
endloop
endfacet
facet normal -4.1837607551572514e-17 3.1908459571404132e-15 -1.0
outer loop
vertex -25.84490203857422 44.90412139892578 -14.0
vertex -34.68241882324219 45.344947814941406 -14.0
vertex -24.717548370361328 44.91890335083008 -14.0
endloop
endfacet
facet normal 4.796288594322809e-16 1.3433399383575777e-15 -1.0
outer loop
vertex -68.35857391357422 54.581722259521484 -14.0
vertex -37.40864181518555 44.8536376953125 -14.0
vertex -38.52099609375 43.92845153808594 -14.0
endloop
endfacet
facet normal 0.0 0.0 -1.0
outer loop
vertex -39.21836853027344 42.75635528564453 -14.0
vertex -68.35857391357422 54.581722259521484 -14.0
vertex -38.52099609375 43.92845153808594 -14.0
endloop
endfacet
facet normal 3.054333971605513e-17 -8.542714393586294e-17 -1.0
outer loop
vertex -36.0462760925293 45.34073257446289 -14.0
vertex -37.40864181518555 44.8536376953125 -14.0
vertex -68.35857391357422 54.581722259521484 -14.0
endloop
endfacet
facet normal 1.7505053938500492e-15 4.313617351362669e-15 -1.0
outer loop
vertex -40.70603942871094 42.948265075683594 -14.0
vertex -68.35857391357422 54.581722259521484 -14.0
vertex -39.21836853027344 42.75635528564453 -14.0
endloop
endfacet
facet normal -4.517289573433738e-17 -3.5017864051819874e-16 -1.0
outer loop
vertex -5.380420207977295 46.45756530761719 -14.0
vertex -36.0462760925293 45.34073257446289 -14.0
vertex -68.35857391357422 54.581722259521484 -14.0
endloop
endfacet
facet normal -1.4179216128797924e-15 3.734255878693263e-14 -1.0
outer loop
vertex -34.68241882324219 45.344947814941406 -14.0
vertex -36.0462760925293 45.34073257446289 -14.0
vertex -5.380420207977295 46.45756530761719 -14.0
endloop
endfacet
facet normal -8.384855907231164e-17 2.2082460219527726e-15 -1.0
outer loop
vertex -24.717548370361328 44.91890335083008 -14.0
vertex -34.68241882324219 45.344947814941406 -14.0
vertex -5.380420207977295 46.45756530761719 -14.0
endloop
endfacet
facet normal 5.681652826465021e-17 4.4043968898747866e-16 -1.0
outer loop
vertex -19.19217872619629 44.20613098144531 -14.0
vertex -24.717548370361328 44.91890335083008 -14.0
vertex -5.380420207977295 46.45756530761719 -14.0
endloop
endfacet
facet normal 1.3137447924689696e-16 -1.6947251574568054e-17 -1.0
outer loop
vertex -6.02011775970459 41.4986572265625 -14.0
vertex -19.19217872619629 44.20613098144531 -14.0
vertex -5.380420207977295 46.45756530761719 -14.0
endloop
endfacet
facet normal 2.888321138771835e-17 -5.155743966149117e-16 -1.0
outer loop
vertex -18.999765396118164 40.77151870727539 -14.0
vertex -19.19217872619629 44.20613098144531 -14.0
vertex -6.02011775970459 41.4986572265625 -14.0
endloop
endfacet
facet normal 7.440628576257393e-16 5.660439283347731e-17 1.0
outer loop
vertex -33.342979431152344 44.88074493408203 -7.0
vertex -31.720218658447266 39.240562438964844 -7.0
vertex -32.06587600708008 43.784210205078125 -7.0
endloop
endfacet
facet normal -6.098178234252669e-16 -8.195744260932735e-15 -1.0
outer loop
vertex -26.96786117553711 44.55419158935547 -14.0
vertex -34.68241882324219 45.344947814941406 -14.0
vertex -25.84490203857422 44.90412139892578 -14.0
endloop
endfacet
facet normal 4.3932615829919447e-16 2.039631620065832e-15 -1.0
outer loop
vertex -27.94049072265625 43.89277267456055 -14.0
vertex -34.68241882324219 45.344947814941406 -14.0
vertex -26.96786117553711 44.55419158935547 -14.0
endloop
endfacet
facet normal 2.392249530183666e-15 1.1106345132309327e-14 -1.0
outer loop
vertex -33.390846252441406 44.90681076049805 -14.0
vertex -34.68241882324219 45.344947814941406 -14.0
vertex -27.94049072265625 43.89277267456055 -14.0
endloop
endfacet
facet normal 2.8294195925854043e-16 -2.3098037900209055e-16 -1.0
outer loop
vertex -28.653478622436523 43.01939010620117 -14.0
vertex -33.390846252441406 44.90681076049805 -14.0
vertex -27.94049072265625 43.89277267456055 -14.0
endloop
endfacet
facet normal -8.403131172463768e-16 -3.0503187442679517e-15 -1.0
outer loop
vertex -32.254398345947266 44.01138687133789 -14.0
vertex -33.390846252441406 44.90681076049805 -14.0
vertex -28.653478622436523 43.01939010620117 -14.0
endloop
endfacet
facet normal -2.3782562282576697e-16 -8.633019090722137e-16 -1.0
outer loop
vertex -29.71873664855957 41.25522232055664 -14.0
vertex -32.254398345947266 44.01138687133789 -14.0
vertex -28.653478622436523 43.01939010620117 -14.0
endloop
endfacet
facet normal 6.8959514510638035e-15 5.699745688446389e-15 -1.0
outer loop
vertex -31.494407653808594 42.780242919921875 -14.0
vertex -32.254398345947266 44.01138687133789 -14.0
vertex -29.71873664855957 41.25522232055664 -14.0
endloop
endfacet
facet normal -3.53636546646246e-16 -2.741377664558812e-15 -1.0
outer loop
vertex -31.206409454345703 41.4471321105957 -14.0
vertex -31.494407653808594 42.780242919921875 -14.0
vertex -29.71873664855957 41.25522232055664 -14.0
endloop
endfacet
facet normal -1.3642892336651038e-16 -7.642942064836837e-18 1.0
outer loop
vertex -6.02011775970459 41.4986572265625 14.0
vertex -19.19217872619629 44.20613098144531 14.0
vertex -18.999765396118164 40.77151870727539 14.0
endloop
endfacet
facet normal -1.5865726489417017e-16 -4.839927731765351e-16 1.0
outer loop
vertex -37.36039733886719 37.6177978515625 7.0
vertex -35.88263702392578 37.13337707519531 7.0
vertex -32.816749572753906 37.96345520019531 7.0
endloop
endfacet
facet normal -6.401250911793771e-28 1.4329748139823337e-28 -1.0
outer loop
vertex -33.342979431152344 44.88074493408203 -2.0781966066378468e-15
vertex -32.06587600708008 43.784210205078125 -2.0781966066378468e-15
vertex -35.88263702392578 37.13337707519531 -2.0781966066378468e-15
endloop
endfacet
facet normal -6.400614391947151e-28 1.4327660913246107e-28 -1.0
outer loop
vertex -37.36039733886719 37.6177978515625 -2.0781966066378468e-15
vertex -33.342979431152344 44.88074493408203 -2.0781966066378468e-15
vertex -35.88263702392578 37.13337707519531 -2.0781966066378468e-15
endloop
endfacet
facet normal -6.398354794639899e-28 1.431516283161325e-28 -1.0
outer loop
vertex -34.82073974609375 45.36516571044922 -2.0781966066378468e-15
vertex -33.342979431152344 44.88074493408203 -2.0781966066378468e-15
vertex -37.36039733886719 37.6177978515625 -2.0781966066378468e-15
endloop
endfacet
facet normal -6.396771680225613e-28 1.430997365411934e-28 -1.0
outer loop
vertex -38.63750457763672 38.714332580566406 -2.0781966066378468e-15
vertex -34.82073974609375 45.36516571044922 -2.0781966066378468e-15
vertex -37.36039733886719 37.6177978515625 -2.0781966066378468e-15
endloop
endfacet
facet normal -6.400531576959543e-28 1.4331548884321339e-28 -1.0
outer loop
vertex -36.3730583190918 45.27162170410156 -2.0781966066378468e-15
vertex -34.82073974609375 45.36516571044922 -2.0781966066378468e-15
vertex -38.63750457763672 38.714332580566406 -2.0781966066378468e-15
endloop
endfacet
facet normal -6.400062613018084e-28 1.4329931103168053e-28 -1.0
outer loop
vertex -39.37404251098633 40.227901458740234 -2.0781966066378468e-15
vertex -36.3730583190918 45.27162170410156 -2.0781966066378468e-15
vertex -38.63750457763672 38.714332580566406 -2.0781966066378468e-15
endloop
endfacet
facet normal -6.3987996844570525e-28 1.4322416365266297e-28 -1.0
outer loop
vertex -37.88663101196289 44.53508758544922 -2.0781966066378468e-15
vertex -36.3730583190918 45.27162170410156 -2.0781966066378468e-15
vertex -39.37404251098633 40.227901458740234 -2.0781966066378468e-15
endloop
endfacet
facet normal -6.4023804697061545e-28 1.4334782039215479e-28 -1.0
outer loop
vertex -39.467586517333984 41.78022003173828 -2.0781966066378468e-15
vertex -37.88663101196289 44.53508758544922 -2.0781966066378468e-15
vertex -39.37404251098633 40.227901458740234 -2.0781966066378468e-15
endloop
endfacet
facet normal -6.394266526850451e-28 1.4288217867985056e-28 -1.0
outer loop
vertex -38.98316192626953 43.25798034667969 -2.0781966066378468e-15
vertex -37.88663101196289 44.53508758544922 -2.0781966066378468e-15
vertex -39.467586517333984 41.78022003173828 -2.0781966066378468e-15
endloop
endfacet
facet normal 8.293901112308303e-17 -1.3763247777521994e-15 1.0
outer loop
vertex -32.816749572753906 37.96345520019531 7.0
vertex -35.88263702392578 37.13337707519531 7.0
vertex -34.330322265625 37.22692108154297 7.0
endloop
endfacet
facet normal -6.400494502808113e-28 1.4325406371504959e-28 -1.0
outer loop
vertex -35.88263702392578 37.13337707519531 -2.0781966066378468e-15
vertex -32.06587600708008 43.784210205078125 -2.0781966066378468e-15
vertex -34.330322265625 37.22692108154297 -2.0781966066378468e-15
endloop
endfacet
facet normal -2.657417905942394e-16 9.23629713158033e-16 1.0
outer loop
vertex -31.720218658447266 39.240562438964844 7.0
vertex -37.36039733886719 37.6177978515625 7.0
vertex -32.816749572753906 37.96345520019531 7.0
endloop
endfacet
facet normal 1.7455362485952023e-16 -6.066901013279712e-16 1.0
outer loop
vertex -38.63750457763672 38.714332580566406 7.0
vertex -37.36039733886719 37.6177978515625 7.0
vertex -31.720218658447266 39.240562438964844 7.0
endloop
endfacet
facet normal 1.316837521517632e-16 -4.3167141567573895e-17 1.0
outer loop
vertex -31.235794067382812 40.71832275390625 7.0
vertex -38.63750457763672 38.714332580566406 7.0
vertex -31.720218658447266 39.240562438964844 7.0
endloop
endfacet
facet normal -1.7473609428520452e-16 1.0885896972731633e-15 1.0
outer loop
vertex -39.37404251098633 40.227901458740234 7.0
vertex -38.63750457763672 38.714332580566406 7.0
vertex -31.235794067382812 40.71832275390625 7.0
endloop
endfacet
facet normal -1.0874146111124154e-16 -6.552892966191502e-18 1.0
outer loop
vertex -31.3293399810791 42.2706413269043 7.0
vertex -39.37404251098633 40.227901458740234 7.0
vertex -31.235794067382812 40.71832275390625 7.0
endloop
endfacet
facet normal 3.4354461891829895e-17 -5.700924017155138e-16 1.0
outer loop
vertex -39.467586517333984 41.78022003173828 7.0
vertex -39.37404251098633 40.227901458740234 7.0
vertex -31.3293399810791 42.2706413269043 7.0
endloop
endfacet
facet normal 3.4354461891829895e-17 -5.700924017155138e-16 1.0
outer loop
vertex -32.06587600708008 43.784210205078125 7.0
vertex -39.467586517333984 41.78022003173828 7.0
vertex -31.3293399810791 42.2706413269043 7.0
endloop
endfacet
facet normal -1.316837521517632e-16 4.3167141567573895e-17 1.0
outer loop
vertex -38.98316192626953 43.25798034667969 7.0
vertex -39.467586517333984 41.78022003173828 7.0
vertex -32.06587600708008 43.784210205078125 7.0
endloop
endfacet
facet normal -1.7455362485952023e-16 6.066901013279712e-16 1.0
outer loop
vertex -33.342979431152344 44.88074493408203 7.0
vertex -38.98316192626953 43.25798034667969 7.0
vertex -32.06587600708008 43.784210205078125 7.0
endloop
endfacet
facet normal -0.0 0.0 1.0
outer loop
vertex -37.88663101196289 44.53508758544922 7.0
vertex -38.98316192626953 43.25798034667969 7.0
vertex -33.342979431152344 44.88074493408203 7.0
endloop
endfacet
facet normal 0.7587074637413025 -0.6514315009117126 1.3224854578005847e-15
outer loop
vertex -31.720218658447266 39.240562438964844 -2.0781966066378468e-15
vertex -32.816749572753906 37.96345520019531 7.0
vertex -32.816749572753906 37.96345520019531 -2.0781966066378468e-15
endloop
endfacet
facet normal -0.8991873860359192 -0.43756377696990967 9.50715287745263e-12
outer loop
vertex -38.63750457763672 38.714332580566406 -2.0781966066378468e-15
vertex -39.37404251098633 40.227901458740234 7.0
vertex -39.37404251098633 40.227901458740234 -2.0781966066378468e-15
endloop
endfacet
facet normal -0.8991873860359192 -0.43756377696990967 4.522732951259929e-16
outer loop
vertex -38.63750457763672 38.714332580566406 7.0
vertex -39.37404251098633 40.227901458740234 7.0
vertex -38.63750457763672 38.714332580566406 -2.0781966066378468e-15
endloop
endfacet
facet normal -0.6514315009117126 -0.7587074637413025 7.70134372923549e-16
outer loop
vertex -37.36039733886719 37.6177978515625 -2.0781966066378468e-15
vertex -38.63750457763672 38.714332580566406 7.0
vertex -38.63750457763672 38.714332580566406 -2.0781966066378468e-15
endloop
endfacet
facet normal -0.6514315009117126 -0.7587074637413025 -1.1306832378149822e-16
outer loop
vertex -37.36039733886719 37.6177978515625 7.0
vertex -38.63750457763672 38.714332580566406 7.0
vertex -37.36039733886719 37.6177978515625 -2.0781966066378468e-15
endloop
endfacet
facet normal -0.9981892108917236 -0.060152098536491394 -8.782321224420908e-12
outer loop
vertex -39.467586517333984 41.78022003173828 7.0
vertex -39.37404251098633 40.227901458740234 -2.0781966066378468e-15
vertex -39.37404251098633 40.227901458740234 7.0
endloop
endfacet
facet normal -0.9981892108917236 -0.060152098536491394 0.0
outer loop
vertex -39.467586517333984 41.78022003173828 -2.0781966066378468e-15
vertex -39.37404251098633 40.227901458740234 -2.0781966066378468e-15
vertex -39.467586517333984 41.78022003173828 7.0
endloop
endfacet
facet normal -0.3114994466304779 -0.9502463340759277 -6.483670869481982e-16
outer loop
vertex -35.88263702392578 37.13337707519531 -2.0781966066378468e-15
vertex -37.36039733886719 37.6177978515625 7.0
vertex -37.36039733886719 37.6177978515625 -2.0781966066378468e-15
endloop
endfacet
facet normal -0.3114994466304779 -0.9502463340759277 0.0
outer loop
vertex -35.88263702392578 37.13337707519531 7.0
vertex -37.36039733886719 37.6177978515625 7.0
vertex -35.88263702392578 37.13337707519531 -2.0781966066378468e-15
endloop
endfacet
facet normal 0.43756377696990967 -0.8991873860359192 9.50485870565565e-12
outer loop
vertex -32.816749572753906 37.96345520019531 -2.0781966066378468e-15
vertex -34.330322265625 37.22692108154297 7.0
vertex -34.330322265625 37.22692108154297 -2.0781966066378468e-15
endloop
endfacet
facet normal 0.43756377696990967 -0.8991873860359192 1.827937969514485e-15
outer loop
vertex -32.816749572753906 37.96345520019531 7.0
vertex -34.330322265625 37.22692108154297 7.0
vertex -32.816749572753906 37.96345520019531 -2.0781966066378468e-15
endloop
endfacet
facet normal 1.1320878566695462e-16 -1.4881257152514786e-15 1.0
outer loop
vertex -34.82073974609375 45.36516571044922 7.0
vertex -37.88663101196289 44.53508758544922 7.0
vertex -33.342979431152344 44.88074493408203 7.0
endloop
endfacet
facet normal 0.7587074637413025 -0.6514315009117126 0.0
outer loop
vertex -31.720218658447266 39.240562438964844 7.0
vertex -32.816749572753906 37.96345520019531 7.0
vertex -31.720218658447266 39.240562438964844 -2.0781966066378468e-15
endloop
endfacet
facet normal 0.060152098536491394 -0.9981892108917236 -8.78529974462916e-12
outer loop
vertex -35.88263702392578 37.13337707519531 7.0
vertex -34.330322265625 37.22692108154297 -2.0781966066378468e-15
vertex -34.330322265625 37.22692108154297 7.0
endloop
endfacet
facet normal 0.060152098536491394 -0.9981892108917236 0.0
outer loop
vertex -35.88263702392578 37.13337707519531 -2.0781966066378468e-15
vertex -34.330322265625 37.22692108154297 -2.0781966066378468e-15
vertex -35.88263702392578 37.13337707519531 7.0
endloop
endfacet
facet normal 0.9502463340759277 -0.3114994466304779 0.0
outer loop
vertex -31.235794067382812 40.71832275390625 -2.0781966066378468e-15
vertex -31.720218658447266 39.240562438964844 7.0
vertex -31.720218658447266 39.240562438964844 -2.0781966066378468e-15
endloop
endfacet
facet normal 0.9502463340759277 -0.3114994466304779 0.0
outer loop
vertex -31.235794067382812 40.71832275390625 7.0
vertex -31.720218658447266 39.240562438964844 7.0
vertex -31.235794067382812 40.71832275390625 -2.0781966066378468e-15
endloop
endfacet
facet normal -6.410141967382035e-28 1.4393642069434598e-28 -1.0
outer loop
vertex -32.816749572753906 37.96345520019531 -2.0781966066378468e-15
vertex -31.235794067382812 40.71832275390625 -2.0781966066378468e-15
vertex -31.720218658447266 39.240562438964844 -2.0781966066378468e-15
endloop
endfacet
facet normal -6.392109003830251e-28 1.4290153427579165e-28 -1.0
outer loop
vertex -31.3293399810791 42.2706413269043 -2.0781966066378468e-15
vertex -31.235794067382812 40.71832275390625 -2.0781966066378468e-15
vertex -32.816749572753906 37.96345520019531 -2.0781966066378468e-15
endloop
endfacet
facet normal -6.398264275932513e-28 1.4311409675634124e-28 -1.0
outer loop
vertex -34.330322265625 37.22692108154297 -2.0781966066378468e-15
vertex -31.3293399810791 42.2706413269043 -2.0781966066378468e-15
vertex -32.816749572753906 37.96345520019531 -2.0781966066378468e-15
endloop
endfacet
facet normal -6.400785799712202e-28 1.43264126699009e-28 -1.0
outer loop
vertex -32.06587600708008 43.784210205078125 -2.0781966066378468e-15
vertex -31.3293399810791 42.2706413269043 -2.0781966066378468e-15
vertex -34.330322265625 37.22692108154297 -2.0781966066378468e-15
endloop
endfacet
facet normal -5.628484700714767e-16 -1.017553173272563e-15 -1.0
outer loop
vertex -38.98316192626953 43.25798034667969 -14.0
vertex -31.720218658447266 39.240562438964844 -14.0
vertex -39.467586517333984 41.78022003173828 -14.0
endloop
endfacet
facet normal 0.9502463340759277 -0.3114994466304779 8.783172973647613e-12
outer loop
vertex -31.235794067382812 40.71832275390625 -14.0
vertex -31.720218658447266 39.240562438964844 -7.0
vertex -31.720218658447266 39.240562438964844 -14.0
endloop
endfacet
facet normal 0.9502463340759277 -0.3114994466304779 0.0
outer loop
vertex -31.235794067382812 40.71832275390625 -7.0
vertex -31.720218658447266 39.240562438964844 -7.0
vertex -31.235794067382812 40.71832275390625 -14.0
endloop
endfacet
facet normal 0.060152098536491394 -0.9981892108917236 -8.780014042197859e-12
outer loop
vertex -35.88263702392578 37.13337707519531 -7.0
vertex -34.330322265625 37.22692108154297 -14.0
vertex -34.330322265625 37.22692108154297 -7.0
endloop
endfacet
facet normal 0.060152098536491394 -0.9981892108917236 0.0
outer loop
vertex -35.88263702392578 37.13337707519531 -14.0
vertex -34.330322265625 37.22692108154297 -14.0
vertex -35.88263702392578 37.13337707519531 -7.0
endloop
endfacet
facet normal -3.662434938656034e-15 -7.505509817709415e-15 -1.0
outer loop
vertex -38.63750457763672 38.714332580566406 -14.0
vertex -35.88263702392578 37.13337707519531 -14.0
vertex -37.36039733886719 37.6177978515625 -14.0
endloop
endfacet
facet normal 6.127501853142123e-17 -1.0168234543885034e-15 -1.0
outer loop
vertex -34.330322265625 37.22692108154297 -14.0
vertex -35.88263702392578 37.13337707519531 -14.0
vertex -38.63750457763672 38.714332580566406 -14.0
endloop
endfacet
facet normal 4.95721267820251e-16 2.412285512215815e-16 -1.0
outer loop
vertex -39.37404251098633 40.227901458740234 -14.0
vertex -34.330322265625 37.22692108154297 -14.0
vertex -38.63750457763672 38.714332580566406 -14.0
endloop
endfacet
facet normal 1.58451991753359e-16 -3.2561661734173495e-16 -1.0
outer loop
vertex -32.816749572753906 37.96345520019531 -14.0
vertex -34.330322265625 37.22692108154297 -14.0
vertex -39.37404251098633 40.227901458740234 -14.0
endloop
endfacet
facet normal 6.802263254350373e-16 1.1853165188057497e-15 -1.0
outer loop
vertex -39.467586517333984 41.78022003173828 -14.0
vertex -32.816749572753906 37.96345520019531 -14.0
vertex -39.37404251098633 40.227901458740234 -14.0
endloop
endfacet
facet normal -5.347363465246129e-16 -9.317955342860382e-16 -1.0
outer loop
vertex -31.720218658447266 39.240562438964844 -14.0
vertex -32.816749572753906 37.96345520019531 -14.0
vertex -39.467586517333984 41.78022003173828 -14.0
endloop
endfacet
facet normal 0.43756377696990967 -0.8991873860359192 9.50456120057952e-12
outer loop
vertex -34.330322265625 37.22692108154297 -14.0
vertex -32.816749572753906 37.96345520019531 -14.0
vertex -34.330322265625 37.22692108154297 -7.0
endloop
endfacet
facet normal 5.628484700714767e-16 1.017553173272563e-15 -1.0
outer loop
vertex -31.235794067382812 40.71832275390625 -14.0
vertex -31.720218658447266 39.240562438964844 -14.0
vertex -38.98316192626953 43.25798034667969 -14.0
endloop
endfacet
facet normal 1.7892510896074047e-16 -1.5362633917373285e-16 -1.0
outer loop
vertex -37.88663101196289 44.53508758544922 -14.0
vertex -31.235794067382812 40.71832275390625 -14.0
vertex -38.98316192626953 43.25798034667969 -14.0
endloop
endfacet
facet normal 2.766552277844598e-16 1.6671580400544957e-17 -1.0
outer loop
vertex -31.3293399810791 42.2706413269043 -14.0
vertex -31.235794067382812 40.71832275390625 -14.0
vertex -37.88663101196289 44.53508758544922 -14.0
endloop
endfacet
facet normal 1.1327587597033308e-15 2.4957419215033277e-15 -1.0
outer loop
vertex -36.3730583190918 45.27162170410156 -14.0
vertex -31.3293399810791 42.2706413269043 -14.0
vertex -37.88663101196289 44.53508758544922 -14.0
endloop
endfacet
facet normal -4.95721267820251e-16 -2.412285512215815e-16 -1.0
outer loop
vertex -32.06587600708008 43.784210205078125 -14.0
vertex -31.3293399810791 42.2706413269043 -14.0
vertex -36.3730583190918 45.27162170410156 -14.0
endloop
endfacet
facet normal -6.127501853142123e-17 1.0168234543885034e-15 -1.0
outer loop
vertex -34.82073974609375 45.36516571044922 -14.0
vertex -32.06587600708008 43.784210205078125 -14.0
vertex -36.3730583190918 45.27162170410156 -14.0
endloop
endfacet
facet normal -4.7478568385855846e-15 -7.149698381622195e-15 -1.0
outer loop
vertex -33.342979431152344 44.88074493408203 -14.0
vertex -32.06587600708008 43.784210205078125 -14.0
vertex -34.82073974609375 45.36516571044922 -14.0
endloop
endfacet
facet normal -0.0 -0.0 1.0
outer loop
vertex -32.06587600708008 43.784210205078125 -7.0
vertex -31.235794067382812 40.71832275390625 -7.0
vertex -31.3293399810791 42.2706413269043 -7.0
endloop
endfacet
facet normal 0.0 -0.0 1.0
outer loop
vertex -31.720218658447266 39.240562438964844 -7.0
vertex -31.235794067382812 40.71832275390625 -7.0
vertex -32.06587600708008 43.784210205078125 -7.0
endloop
endfacet
facet normal -0.6514315009117126 -0.7587074637413025 0.0
outer loop
vertex -38.63750457763672 38.714332580566406 -14.0
vertex -37.36039733886719 37.6177978515625 -14.0
vertex -38.63750457763672 38.714332580566406 -7.0
endloop
endfacet
facet normal 8.293901112308303e-17 -1.3763247777521994e-15 1.0
outer loop
vertex -36.3730583190918 45.27162170410156 7.0
vertex -37.88663101196289 44.53508758544922 7.0
vertex -34.82073974609375 45.36516571044922 7.0
endloop
endfacet
facet normal -0.7587074637413025 0.6514315009117126 -9.505678362498049e-12
outer loop
vertex -37.88663101196289 44.53508758544922 -7.0
vertex -38.98316192626953 43.25798034667969 -14.0
vertex -38.98316192626953 43.25798034667969 -7.0
endloop
endfacet
facet normal -0.7587074637413025 0.6514315009117126 1.1306832378149822e-16
outer loop
vertex -37.88663101196289 44.53508758544922 -14.0
vertex -38.98316192626953 43.25798034667969 -14.0
vertex -37.88663101196289 44.53508758544922 -7.0
endloop
endfacet
facet normal -0.43756377696990967 0.8991873860359192 -4.685761382617964e-16
outer loop
vertex -36.3730583190918 45.27162170410156 -7.0
vertex -37.88663101196289 44.53508758544922 -14.0
vertex -37.88663101196289 44.53508758544922 -7.0
endloop
endfacet
facet normal -0.43756377696990967 0.8991873860359192 9.505917754337734e-12
outer loop
vertex -36.3730583190918 45.27162170410156 -14.0
vertex -37.88663101196289 44.53508758544922 -14.0
vertex -36.3730583190918 45.27162170410156 -7.0
endloop
endfacet
facet normal -0.9502463340759277 0.3114994466304779 8.785434185698549e-12
outer loop
vertex -39.467586517333984 41.78022003173828 -14.0
vertex -38.98316192626953 43.25798034667969 -7.0
vertex -38.98316192626953 43.25798034667969 -14.0
endloop
endfacet
facet normal -0.9502463340759277 0.3114994466304779 0.0
outer loop
vertex -39.467586517333984 41.78022003173828 -7.0
vertex -38.98316192626953 43.25798034667969 -7.0
vertex -39.467586517333984 41.78022003173828 -14.0
endloop
endfacet
facet normal -0.060152098536491394 0.9981892108917236 -8.778939381004491e-12
outer loop
vertex -34.82073974609375 45.36516571044922 -7.0
vertex -36.3730583190918 45.27162170410156 -14.0
vertex -36.3730583190918 45.27162170410156 -7.0
endloop
endfacet
facet normal -0.060152098536491394 0.9981892108917236 0.0
outer loop
vertex -34.82073974609375 45.36516571044922 -14.0
vertex -36.3730583190918 45.27162170410156 -14.0
vertex -34.82073974609375 45.36516571044922 -7.0
endloop
endfacet
facet normal -0.6514315009117126 -0.7587074637413025 -9.50600535787327e-12
outer loop
vertex -38.63750457763672 38.714332580566406 -7.0
vertex -37.36039733886719 37.6177978515625 -14.0
vertex -37.36039733886719 37.6177978515625 -7.0
endloop
endfacet
facet normal -0.8358161449432373 -0.549009382724762 0.0
outer loop
vertex -39.21031188964844 39.7216796875 -7.0
vertex -38.28618240356445 38.31477737426758 -7.0
vertex -39.21031188964844 39.7216796875 0.0
endloop
endfacet
facet normal -0.8991873860359192 -0.43756377696990967 0.0
outer loop
vertex -39.37404251098633 40.227901458740234 -7.0
vertex -38.63750457763672 38.714332580566406 -14.0
vertex -38.63750457763672 38.714332580566406 -7.0
endloop
endfacet
facet normal -0.8991873860359192 -0.43756377696990967 9.504089355794054e-12
outer loop
vertex -39.37404251098633 40.227901458740234 -14.0
vertex -38.63750457763672 38.714332580566406 -14.0
vertex -39.37404251098633 40.227901458740234 -7.0
endloop
endfacet
facet normal -0.3114994466304779 -0.9502463340759277 8.78348869332024e-12
outer loop
vertex -35.88263702392578 37.13337707519531 -14.0
vertex -37.36039733886719 37.6177978515625 -7.0
vertex -37.36039733886719 37.6177978515625 -14.0
endloop
endfacet
facet normal -0.3114994466304779 -0.9502463340759277 0.0
outer loop
vertex -35.88263702392578 37.13337707519531 -7.0
vertex -37.36039733886719 37.6177978515625 -7.0
vertex -35.88263702392578 37.13337707519531 -14.0
endloop
endfacet
facet normal -0.9981892108917236 -0.060152098536491394 -8.78096640538617e-12
outer loop
vertex -39.467586517333984 41.78022003173828 -7.0
vertex -39.37404251098633 40.227901458740234 -14.0
vertex -39.37404251098633 40.227901458740234 -7.0
endloop
endfacet
facet normal -0.9981892108917236 -0.060152098536491394 0.0
outer loop
vertex -39.467586517333984 41.78022003173828 -14.0
vertex -39.37404251098633 40.227901458740234 -14.0
vertex -39.467586517333984 41.78022003173828 -7.0
endloop
endfacet
facet normal 0.7587074637413025 -0.6514315009117126 -9.506666287517618e-12
outer loop
vertex -32.816749572753906 37.96345520019531 -7.0
vertex -31.720218658447266 39.240562438964844 -14.0
vertex -31.720218658447266 39.240562438964844 -7.0
endloop
endfacet
facet normal 0.7587074637413025 -0.6514315009117126 1.1306832378149822e-16
outer loop
vertex -32.816749572753906 37.96345520019531 -14.0
vertex -31.720218658447266 39.240562438964844 -14.0
vertex -32.816749572753906 37.96345520019531 -7.0
endloop
endfacet
facet normal 0.43756377696990967 -0.8991873860359192 -4.685761382617964e-16
outer loop
vertex -34.330322265625 37.22692108154297 -7.0
vertex -32.816749572753906 37.96345520019531 -14.0
vertex -32.816749572753906 37.96345520019531 -7.0
endloop
endfacet
facet normal 0.4172036945819855 0.9088129997253418 1.247533682819979e-16
outer loop
vertex -26.390628814697266 36.408164978027344 14.0
vertex -27.4595890045166 36.898887634277344 -14.0
vertex -27.4595890045166 36.898887634277344 14.0
endloop
endfacet
facet normal -0.0 1.0 0.0
outer loop
vertex -40.8794059753418 40.249271392822266 -14.0
vertex -40.8794059753418 40.249271392822266 14.0
vertex -39.3794059753418 40.249271392822266 -14.0
endloop
endfacet
facet normal 0.0 1.0 0.0
outer loop
vertex -31.265789031982422 40.5226936340332 -7.0
vertex -29.765789031982422 40.5226936340332 -14.0
vertex -31.265789031982422 40.5226936340332 -14.0
endloop
endfacet
facet normal 0.0 1.0 0.0
outer loop
vertex -31.265789031982422 40.5226936340332 0.0
vertex -29.765789031982422 40.5226936340332 -14.0
vertex -31.265789031982422 40.5226936340332 -7.0
endloop
endfacet
facet normal 0.0 1.0 0.0
outer loop
vertex -31.265789031982422 40.5226936340332 7.0
vertex -29.765789031982422 40.5226936340332 -14.0
vertex -31.265789031982422 40.5226936340332 0.0
endloop
endfacet
facet normal 0.0 1.0 0.0
outer loop
vertex -31.265789031982422 40.5226936340332 14.0
vertex -29.765789031982422 40.5226936340332 -14.0
vertex -31.265789031982422 40.5226936340332 7.0
endloop
endfacet
facet normal 0.0 1.0 0.0
outer loop
vertex -29.765789031982422 40.5226936340332 14.0
vertex -29.765789031982422 40.5226936340332 -14.0
vertex -31.265789031982422 40.5226936340332 14.0
endloop
endfacet
facet normal 0.915140688419342 0.40313464403152466 -0.0
outer loop
vertex -28.93499183654785 38.63673400878906 14.0
vertex -29.765789031982422 40.5226936340332 -14.0
vertex -29.765789031982422 40.5226936340332 14.0
endloop
endfacet
facet normal 0.915140688419342 0.40313464403152466 0.0
outer loop
vertex -28.93499183654785 38.63673400878906 -14.0
vertex -29.765789031982422 40.5226936340332 -14.0
vertex -28.93499183654785 38.63673400878906 14.0
endloop
endfacet
facet normal 0.6635024547576904 0.7481740713119507 1.363607848598597e-14
outer loop
vertex -27.4595890045166 36.898887634277344 14.0
vertex -28.3396053314209 37.6793098449707 -14.0
vertex -28.3396053314209 37.6793098449707 14.0
endloop
endfacet
facet normal 0.6635024547576904 0.7481740713119507 2.022627493206706e-17
outer loop
vertex -27.4595890045166 36.898887634277344 -14.0
vertex -28.3396053314209 37.6793098449707 -14.0
vertex -27.4595890045166 36.898887634277344 14.0
endloop
endfacet
facet normal -0.0 1.0 -0.0
outer loop
vertex -39.3794059753418 40.249271392822266 -14.0
vertex -40.8794059753418 40.249271392822266 14.0
vertex -39.3794059753418 40.249271392822266 -7.0
endloop
endfacet
facet normal 0.4172036945819855 0.9088129997253418 0.0
outer loop
vertex -26.390628814697266 36.408164978027344 -14.0
vertex -27.4595890045166 36.898887634277344 -14.0
vertex -26.390628814697266 36.408164978027344 14.0
endloop
endfacet
facet normal 0.8491926789283752 0.5280831456184387 -1.328187725953148e-14
outer loop
vertex -28.93499183654785 38.63673400878906 -14.0
vertex -28.3396053314209 37.6793098449707 14.0
vertex -28.3396053314209 37.6793098449707 -14.0
endloop
endfacet
facet normal 0.8491926789283752 0.5280831456184387 0.0
outer loop
vertex -28.93499183654785 38.63673400878906 14.0
vertex -28.3396053314209 37.6793098449707 14.0
vertex -28.93499183654785 38.63673400878906 -14.0
endloop
endfacet
facet normal 0.14093135297298431 0.9900193810462952 -0.0
outer loop
vertex -25.274429321289062 36.249271392822266 14.0
vertex -26.390628814697266 36.408164978027344 -14.0
vertex -26.390628814697266 36.408164978027344 14.0
endloop
endfacet
facet normal 0.14093135297298431 0.9900193810462952 0.0
outer loop
vertex -25.274429321289062 36.249271392822266 -14.0
vertex -26.390628814697266 36.408164978027344 -14.0
vertex -25.274429321289062 36.249271392822266 14.0
endloop
endfacet
facet normal 0.0 1.0 -0.0
outer loop
vertex -19.703275680541992 36.249271392822266 14.0
vertex -25.274429321289062 36.249271392822266 -14.0
vertex -25.274429321289062 36.249271392822266 14.0
endloop
endfacet
facet normal 0.0 1.0 -0.0
outer loop
vertex -19.703275680541992 36.249271392822266 -14.0
vertex -25.274429321289062 36.249271392822266 -14.0
vertex -19.703275680541992 36.249271392822266 14.0
endloop
endfacet
facet normal -0.9830731749534607 0.1832132190465927 0.0
outer loop
vertex -19.073022842407227 39.63104248046875 14.0
vertex -19.703275680541992 36.249271392822266 -14.0
vertex -19.703275680541992 36.249271392822266 14.0
endloop
endfacet
facet normal -0.9830731749534607 0.1832132190465927 0.0
outer loop
vertex -19.073022842407227 39.63104248046875 -14.0
vertex -19.703275680541992 36.249271392822266 -14.0
vertex -19.073022842407227 39.63104248046875 14.0
endloop
endfacet
facet normal 0.1832132190465927 0.9830731749534607 -0.0
outer loop
vertex -6.293071269989014 37.249271392822266 14.0
vertex -19.073022842407227 39.63104248046875 -14.0
vertex -19.073022842407227 39.63104248046875 14.0
endloop
endfacet
facet normal 0.0 -0.0 -1.0
outer loop
vertex -36.8792839050293 45.10789108276367 7.0
vertex -35.351688385009766 45.39927291870117 7.0
vertex -38.28618240356445 38.31477737426758 7.0
endloop
endfacet
facet normal -2.1553987893406295e-15 5.2035931749768675e-15 1.0
outer loop
vertex -33.8240966796875 37.39065170288086 14.0
vertex -32.417198181152344 38.31477737426758 14.0
vertex -35.351688385009766 37.09926986694336 14.0
endloop
endfacet
facet normal 0.0 -0.0 -1.0
outer loop
vertex -32.417198181152344 38.31477737426758 7.0
vertex -31.201690673828125 41.249271392822266 7.0
vertex -31.49306869506836 39.7216796875 7.0
endloop
endfacet
facet normal 0.0 -0.0 -1.0
outer loop
vertex -31.49306869506836 42.77686309814453 7.0
vertex -31.201690673828125 41.249271392822266 7.0
vertex -32.417198181152344 38.31477737426758 7.0
endloop
endfacet
facet normal -7.30706206838723e-16 1.513342150789035e-16 -1.0
outer loop
vertex -33.8240966796875 37.39065170288086 7.0
vertex -31.49306869506836 42.77686309814453 7.0
vertex -32.417198181152344 38.31477737426758 7.0
endloop
endfacet
facet normal -1.513342150789035e-16 -9.940451767198388e-17 -1.0
outer loop
vertex -32.417198181152344 44.18376541137695 7.0
vertex -31.49306869506836 42.77686309814453 7.0
vertex -33.8240966796875 37.39065170288086 7.0
endloop
endfacet
facet normal 6.31301702401629e-16 -2.6149373507530185e-16 -1.0
outer loop
vertex -35.351688385009766 37.09926986694336 7.0
vertex -32.417198181152344 44.18376541137695 7.0
vertex -33.8240966796875 37.39065170288086 7.0
endloop
endfacet
facet normal 0.0 -0.0 -1.0
outer loop
vertex -33.8240966796875 45.10789108276367 7.0
vertex -32.417198181152344 44.18376541137695 7.0
vertex -35.351688385009766 37.09926986694336 7.0
endloop
endfacet
facet normal 0.0 -0.0 -1.0
outer loop
vertex -36.8792839050293 37.39065170288086 7.0
vertex -33.8240966796875 45.10789108276367 7.0
vertex -35.351688385009766 37.09926986694336 7.0
endloop
endfacet
facet normal 0.0 -0.0 -1.0
outer loop
vertex -35.351688385009766 45.39927291870117 7.0
vertex -33.8240966796875 45.10789108276367 7.0
vertex -36.8792839050293 37.39065170288086 7.0
endloop
endfacet
facet normal 0.0 -0.0 -1.0
outer loop
vertex -38.28618240356445 38.31477737426758 7.0
vertex -35.351688385009766 45.39927291870117 7.0
vertex -36.8792839050293 37.39065170288086 7.0
endloop
endfacet
facet normal 0.1832132190465927 0.9830731749534607 0.0
outer loop
vertex -6.293071269989014 37.249271392822266 -14.0
vertex -19.073022842407227 39.63104248046875 -14.0
vertex -6.293071269989014 37.249271392822266 14.0
endloop
endfacet
facet normal -1.461412413677446e-15 3.02668430157807e-16 -1.0
outer loop
vertex -39.21031188964844 39.7216796875 7.0
vertex -36.8792839050293 45.10789108276367 7.0
vertex -38.28618240356445 38.31477737426758 7.0
endloop
endfacet
facet normal -5.793720182295991e-16 -7.905816423911494e-17 -1.0
outer loop
vertex -38.28618240356445 44.18376541137695 7.0
vertex -36.8792839050293 45.10789108276367 7.0
vertex -39.21031188964844 39.7216796875 7.0
endloop
endfacet
facet normal 2.4225110527737468e-15 -7.007685155322894e-16 -1.0
outer loop
vertex -39.50168991088867 41.249271392822266 7.0
vertex -38.28618240356445 44.18376541137695 7.0
vertex -39.21031188964844 39.7216796875 7.0
endloop
endfacet
facet normal 1.354403035681666e-15 -2.583436724840223e-16 -1.0
outer loop
vertex -39.21031188964844 42.77686309814453 7.0
vertex -38.28618240356445 44.18376541137695 7.0
vertex -39.50168991088867 41.249271392822266 7.0
endloop
endfacet
facet normal -0.2666666805744171 0.9637888073921204 0.0
outer loop
vertex -40.8794059753418 40.249271392822266 14.0
vertex -69.7930679321289 32.249271392822266 -14.0
vertex -69.7930679321289 32.249271392822266 14.0
endloop
endfacet
facet normal -0.2666666805744171 0.9637888073921204 0.0
outer loop
vertex -40.8794059753418 40.249271392822266 -14.0
vertex -69.7930679321289 32.249271392822266 -14.0
vertex -40.8794059753418 40.249271392822266 14.0
endloop
endfacet
facet normal 0.0 1.0 -0.0
outer loop
vertex -39.3794059753418 40.249271392822266 7.0
vertex -40.8794059753418 40.249271392822266 14.0
vertex -39.3794059753418 40.249271392822266 14.0
endloop
endfacet
facet normal -0.0 1.0 -0.0
outer loop
vertex -39.3794059753418 40.249271392822266 0.0
vertex -40.8794059753418 40.249271392822266 14.0
vertex -39.3794059753418 40.249271392822266 7.0
endloop
endfacet
facet normal -0.0 1.0 -0.0
outer loop
vertex -39.3794059753418 40.249271392822266 -7.0
vertex -40.8794059753418 40.249271392822266 14.0
vertex -39.3794059753418 40.249271392822266 0.0
endloop
endfacet
facet normal 2.3875484973264046e-15 3.894454203567932e-15 -1.0
outer loop
vertex -38.83772277832031 38.997589111328125 -14.0
vertex -37.85287857055664 37.93769073486328 -14.0
vertex -40.8794059753418 40.249271392822266 -14.0
endloop
endfacet
facet normal -2.222910068093876e-15 3.383179610891079e-15 1.0
outer loop
vertex -31.72197723388672 39.23738479614258 14.0
vertex -32.633235931396484 38.113590240478516 14.0
vertex -29.765789031982422 40.5226936340332 14.0
endloop
endfacet
facet normal -0.0 0.0 1.0
outer loop
vertex -31.265789031982422 40.5226936340332 14.0
vertex -31.72197723388672 39.23738479614258 14.0
vertex -29.765789031982422 40.5226936340332 14.0
endloop
endfacet
facet normal -0.0 0.0 -1.0
outer loop
vertex -6.293071269989014 37.249271392822266 -14.0
vertex -19.703275680541992 36.249271392822266 -14.0
vertex -19.073022842407227 39.63104248046875 -14.0
endloop
endfacet
facet normal 0.0 0.0 -1.0
outer loop
vertex -6.293071269989014 32.249271392822266 -14.0
vertex -19.703275680541992 36.249271392822266 -14.0
vertex -6.293071269989014 37.249271392822266 -14.0
endloop
endfacet
facet normal 0.0 0.0 -1.0
outer loop
vertex -25.274429321289062 36.249271392822266 -14.0
vertex -19.703275680541992 36.249271392822266 -14.0
vertex -6.293071269989014 32.249271392822266 -14.0
endloop
endfacet
facet normal 0.0 0.0 -1.0
outer loop
vertex -69.7930679321289 32.249271392822266 -14.0
vertex -25.274429321289062 36.249271392822266 -14.0
vertex -6.293071269989014 32.249271392822266 -14.0
endloop
endfacet
facet normal 0.0 -0.0 -1.0
outer loop
vertex -35.211917877197266 37.101627349853516 -14.0
vertex -25.274429321289062 36.249271392822266 -14.0
vertex -69.7930679321289 32.249271392822266 -14.0
endloop
endfacet
facet normal 0.0 -0.0 -1.0
outer loop
vertex -36.564029693603516 37.28030014038086 -14.0
vertex -35.211917877197266 37.101627349853516 -14.0
vertex -69.7930679321289 32.249271392822266 -14.0
endloop
endfacet
facet normal 3.1547077729018414e-16 -2.083628205412115e-15 -1.0
outer loop
vertex -37.85287857055664 37.93769073486328 -14.0
vertex -36.564029693603516 37.28030014038086 -14.0
vertex -69.7930679321289 32.249271392822266 -14.0
endloop
endfacet
facet normal -1.5608016715214896e-16 5.641062081190309e-16 -1.0
outer loop
vertex -40.8794059753418 40.249271392822266 -14.0
vertex -37.85287857055664 37.93769073486328 -14.0
vertex -69.7930679321289 32.249271392822266 -14.0
endloop
endfacet
facet normal 4.521493636178977e-16 1.991793078559261e-16 1.0
outer loop
vertex -29.765789031982422 40.5226936340332 14.0
vertex -32.633235931396484 38.113590240478516 14.0
vertex -28.93499183654785 38.63673400878906 14.0
endloop
endfacet
facet normal -1.1842379282265398e-15 -1.931671976982351e-15 -1.0
outer loop
vertex -39.3794059753418 40.249271392822266 -14.0
vertex -38.83772277832031 38.997589111328125 -14.0
vertex -40.8794059753418 40.249271392822266 -14.0
endloop
endfacet
facet normal -0.0 -0.0 -1.0
outer loop
vertex -26.390628814697266 36.408164978027344 -14.0
vertex -25.274429321289062 36.249271392822266 -14.0
vertex -35.211917877197266 37.101627349853516 -14.0
endloop
endfacet
facet normal -0.0 -0.0 -1.0
outer loop
vertex -33.87490463256836 37.37092208862305 -14.0
vertex -26.390628814697266 36.408164978027344 -14.0
vertex -35.211917877197266 37.101627349853516 -14.0
endloop
endfacet
facet normal -0.0 -0.0 -1.0
outer loop
vertex -27.4595890045166 36.898887634277344 -14.0
vertex -26.390628814697266 36.408164978027344 -14.0
vertex -33.87490463256836 37.37092208862305 -14.0
endloop
endfacet
facet normal -0.0 -0.0 -1.0
outer loop
vertex -32.633235931396484 38.113590240478516 -14.0
vertex -27.4595890045166 36.898887634277344 -14.0
vertex -33.87490463256836 37.37092208862305 -14.0
endloop
endfacet
facet normal -0.0 -0.0 -1.0
outer loop
vertex -28.3396053314209 37.6793098449707 -14.0
vertex -27.4595890045166 36.898887634277344 -14.0
vertex -32.633235931396484 38.113590240478516 -14.0
endloop
endfacet
facet normal -0.0 -0.0 -1.0
outer loop
vertex -31.72197723388672 39.23738479614258 -14.0
vertex -28.3396053314209 37.6793098449707 -14.0
vertex -32.633235931396484 38.113590240478516 -14.0
endloop
endfacet
facet normal -0.0 -0.0 -1.0
outer loop
vertex -28.93499183654785 38.63673400878906 -14.0
vertex -28.3396053314209 37.6793098449707 -14.0
vertex -31.72197723388672 39.23738479614258 -14.0
endloop
endfacet
facet normal -0.0 -0.0 -1.0
outer loop
vertex -31.265789031982422 40.5226936340332 -14.0
vertex -28.93499183654785 38.63673400878906 -14.0
vertex -31.72197723388672 39.23738479614258 -14.0
endloop
endfacet
facet normal -3.6568130221664296e-16 -2.179371092297347e-15 1.0
outer loop
vertex -25.274429321289062 36.249271392822266 14.0
vertex -35.211917877197266 37.101627349853516 14.0
vertex -6.293071269989014 32.249271392822266 14.0
endloop
endfacet
facet normal 1.0 -0.0 0.0
outer loop
vertex -6.293071269989014 32.249271392822266 14.0
vertex -6.293071269989014 37.249271392822266 -14.0
vertex -6.293071269989014 37.249271392822266 14.0
endloop
endfacet
facet normal 1.0 0.0 -0.0
outer loop
vertex -6.293071269989014 32.249271392822266 -14.0
vertex -6.293071269989014 37.249271392822266 -14.0
vertex -6.293071269989014 32.249271392822266 14.0
endloop
endfacet
facet normal 0.0 -1.0 0.0
outer loop
vertex -69.7930679321289 32.249271392822266 14.0
vertex -6.293071269989014 32.249271392822266 -14.0
vertex -6.293071269989014 32.249271392822266 14.0
endloop
endfacet
facet normal 0.0 -1.0 0.0
outer loop
vertex -69.7930679321289 32.249271392822266 -14.0
vertex -6.293071269989014 32.249271392822266 -14.0
vertex -69.7930679321289 32.249271392822266 14.0
endloop
endfacet
facet normal 0.0 -0.0 1.0
outer loop
vertex -69.7930679321289 32.249271392822266 14.0
vertex -37.85287857055664 37.93769073486328 14.0
vertex -38.83772277832031 38.997589111328125 14.0
endloop
endfacet
facet normal -0.0 0.0 1.0
outer loop
vertex -39.3794059753418 40.249271392822266 14.0
vertex -69.7930679321289 32.249271392822266 14.0
vertex -38.83772277832031 38.997589111328125 14.0
endloop
endfacet
facet normal 0.0 0.0 1.0
outer loop
vertex -36.564029693603516 37.28030014038086 14.0
vertex -37.85287857055664 37.93769073486328 14.0
vertex -69.7930679321289 32.249271392822266 14.0
endloop
endfacet
facet normal -0.0 0.0 1.0
outer loop
vertex -40.8794059753418 40.249271392822266 14.0
vertex -69.7930679321289 32.249271392822266 14.0
vertex -39.3794059753418 40.249271392822266 14.0
endloop
endfacet
facet normal 0.0 0.0 1.0
outer loop
vertex -6.293071269989014 32.249271392822266 14.0
vertex -36.564029693603516 37.28030014038086 14.0
vertex -69.7930679321289 32.249271392822266 14.0
endloop
endfacet
facet normal 0.0 0.0 1.0
outer loop
vertex -35.211917877197266 37.101627349853516 14.0
vertex -36.564029693603516 37.28030014038086 14.0
vertex -6.293071269989014 32.249271392822266 14.0
endloop
endfacet
facet normal -7.962001707489648e-16 1.9221972781926014e-15 1.0
outer loop
vertex -35.351688385009766 37.09926986694336 14.0
vertex -32.417198181152344 38.31477737426758 14.0
vertex -36.8792839050293 37.39065170288086 14.0
endloop
endfacet
facet normal 5.663896185510536e-31 -4.440892098500626e-16 1.0
outer loop
vertex -19.703275680541992 36.249271392822266 14.0
vertex -25.274429321289062 36.249271392822266 14.0
vertex -6.293071269989014 32.249271392822266 14.0
endloop
endfacet
facet normal 1.3246306216790655e-16 -9.412066893093325e-32 1.0
outer loop
vertex -6.293071269989014 37.249271392822266 14.0
vertex -19.703275680541992 36.249271392822266 14.0
vertex -6.293071269989014 32.249271392822266 14.0
endloop
endfacet
facet normal 9.4608153903487e-17 5.076420918825528e-16 1.0
outer loop
vertex -19.073022842407227 39.63104248046875 14.0
vertex -19.703275680541992 36.249271392822266 14.0
vertex -6.293071269989014 37.249271392822266 14.0
endloop
endfacet
facet normal 4.3752542448684695e-15 5.30945696208731e-14 1.0
outer loop
vertex -26.390628814697266 36.408164978027344 14.0
vertex -35.211917877197266 37.101627349853516 14.0
vertex -25.274429321289062 36.249271392822266 14.0
endloop
endfacet
facet normal -1.003860568042842e-16 -3.838558075862147e-15 1.0
outer loop
vertex -27.4595890045166 36.898887634277344 14.0
vertex -35.211917877197266 37.101627349853516 14.0
vertex -26.390628814697266 36.408164978027344 14.0
endloop
endfacet
facet normal 0.0 0.0 1.0
outer loop
vertex -28.3396053314209 37.6793098449707 14.0
vertex -35.211917877197266 37.101627349853516 14.0
vertex -27.4595890045166 36.898887634277344 14.0
endloop
endfacet
facet normal -0.0 0.0 1.0
outer loop
vertex -33.87490463256836 37.37092208862305 14.0
vertex -35.211917877197266 37.101627349853516 14.0
vertex -28.3396053314209 37.6793098449707 14.0
endloop
endfacet
facet normal -0.0 0.0 1.0
outer loop
vertex -28.93499183654785 38.63673400878906 14.0
vertex -33.87490463256836 37.37092208862305 14.0
vertex -28.3396053314209 37.6793098449707 14.0
endloop
endfacet
facet normal 1.0722622901818894e-15 -4.184571881848476e-15 1.0
outer loop
vertex -32.633235931396484 38.113590240478516 14.0
vertex -33.87490463256836 37.37092208862305 14.0
vertex -28.93499183654785 38.63673400878906 14.0
endloop
endfacet
facet normal -0.0 -0.0 1.0
outer loop
vertex -38.28618240356445 38.31477737426758 0.0
vertex -36.8792839050293 37.39065170288086 0.0
vertex -39.21031188964844 42.77686309814453 0.0
endloop
endfacet
facet normal 0.0 -0.0 1.0
outer loop
vertex -31.49306869506836 39.7216796875 0.0
vertex -31.201690673828125 41.249271392822266 0.0
vertex -32.417198181152344 44.18376541137695 0.0
endloop
endfacet
facet normal -0.0 -0.0 1.0
outer loop
vertex -33.8240966796875 45.10789108276367 0.0
vertex -31.49306869506836 39.7216796875 0.0
vertex -32.417198181152344 44.18376541137695 0.0
endloop
endfacet
facet normal 0.0 -0.0 1.0
outer loop
vertex -32.417198181152344 38.31477737426758 0.0
vertex -31.49306869506836 39.7216796875 0.0
vertex -33.8240966796875 45.10789108276367 0.0
endloop
endfacet
facet normal -0.0 -0.0 1.0
outer loop
vertex -35.351688385009766 45.39927291870117 0.0
vertex -32.417198181152344 38.31477737426758 0.0
vertex -33.8240966796875 45.10789108276367 0.0
endloop
endfacet
facet normal 0.0 -0.0 1.0
outer loop
vertex -33.8240966796875 37.39065170288086 0.0
vertex -32.417198181152344 38.31477737426758 0.0
vertex -35.351688385009766 45.39927291870117 0.0
endloop
endfacet
facet normal -0.0 -0.0 1.0
outer loop
vertex -36.8792839050293 45.10789108276367 0.0
vertex -33.8240966796875 37.39065170288086 0.0
vertex -35.351688385009766 45.39927291870117 0.0
endloop
endfacet
facet normal 0.0 -0.0 1.0
outer loop
vertex -35.351688385009766 37.09926986694336 0.0
vertex -33.8240966796875 37.39065170288086 0.0
vertex -36.8792839050293 45.10789108276367 0.0
endloop
endfacet
facet normal -0.0 -0.0 1.0
outer loop
vertex -38.28618240356445 44.18376541137695 0.0
vertex -35.351688385009766 37.09926986694336 0.0
vertex -36.8792839050293 45.10789108276367 0.0
endloop
endfacet
facet normal -0.0 -0.0 1.0
outer loop
vertex -36.8792839050293 37.39065170288086 0.0
vertex -35.351688385009766 37.09926986694336 0.0
vertex -38.28618240356445 44.18376541137695 0.0
endloop
endfacet
facet normal -0.0 -0.0 1.0
outer loop
vertex -39.21031188964844 42.77686309814453 0.0
vertex -36.8792839050293 37.39065170288086 0.0
vertex -38.28618240356445 44.18376541137695 0.0
endloop
endfacet
facet normal -0.0 -0.0 1.0
outer loop
vertex -32.417198181152344 44.18376541137695 0.0
vertex -31.201690673828125 41.249271392822266 0.0
vertex -31.49306869506836 42.77686309814453 0.0
endloop
endfacet
facet normal -0.0 -0.0 1.0
outer loop
vertex -39.50168991088867 41.249271392822266 0.0
vertex -38.28618240356445 38.31477737426758 0.0
vertex -39.21031188964844 42.77686309814453 0.0
endloop
endfacet
facet normal -0.0 -0.0 1.0
outer loop
vertex -39.21031188964844 39.7216796875 0.0
vertex -38.28618240356445 38.31477737426758 0.0
vertex -39.50168991088867 41.249271392822266 0.0
endloop
endfacet
facet normal 0.0 0.0 -1.0
outer loop
vertex -32.417198181152344 44.18376541137695 -7.0
vertex -35.351688385009766 45.39927291870117 -7.0
vertex -33.8240966796875 45.10789108276367 -7.0
endloop
endfacet
facet normal 0.0 0.0 -1.0
outer loop
vertex -36.8792839050293 45.10789108276367 -7.0
vertex -35.351688385009766 45.39927291870117 -7.0
vertex -32.417198181152344 44.18376541137695 -7.0
endloop
endfacet
facet normal 0.0 0.0 -1.0
outer loop
vertex -31.49306869506836 42.77686309814453 -7.0
vertex -36.8792839050293 45.10789108276367 -7.0
vertex -32.417198181152344 44.18376541137695 -7.0
endloop
endfacet
facet normal 2.507387459857772e-16 5.793720182295991e-16 -1.0
outer loop
vertex -38.28618240356445 44.18376541137695 -7.0
vertex -36.8792839050293 45.10789108276367 -7.0
vertex -31.49306869506836 42.77686309814453 -7.0
endloop
endfacet
facet normal 1.3612436208241326e-16 2.5964845394737366e-17 -1.0
outer loop
vertex -31.201690673828125 41.249271392822266 -7.0
vertex -38.28618240356445 44.18376541137695 -7.0
vertex -31.49306869506836 42.77686309814453 -7.0
endloop
endfacet
facet normal -1.070094507876739e-16 -5.610121026418293e-16 -1.0
outer loop
vertex -39.21031188964844 42.77686309814453 -7.0
vertex -38.28618240356445 44.18376541137695 -7.0
vertex -31.201690673828125 41.249271392822266 -7.0
endloop
endfacet
facet normal 0.0 0.0 -1.0
outer loop
vertex -31.49306869506836 39.7216796875 -7.0
vertex -39.21031188964844 42.77686309814453 -7.0
vertex -31.201690673828125 41.249271392822266 -7.0
endloop
endfacet
facet normal 0.0 0.0 -1.0
outer loop
vertex -39.50168991088867 41.249271392822266 -7.0
vertex -39.21031188964844 42.77686309814453 -7.0
vertex -31.49306869506836 39.7216796875 -7.0
endloop
endfacet
facet normal -0.1873655468225479 0.9822902679443359 -1.9018747078567046e-16
outer loop
vertex -35.351688385009766 45.39927291870117 0.0
vertex -36.8792839050293 45.10789108276367 -7.0
vertex -36.8792839050293 45.10789108276367 0.0
endloop
endfacet
facet normal -0.1873655468225479 -0.9822902679443359 8.78321720909625e-12
outer loop
vertex -35.351688385009766 37.09926986694336 -7.0
vertex -36.8792839050293 37.39065170288086 0.0
vertex -36.8792839050293 37.39065170288086 -7.0
endloop
endfacet
facet normal -0.1873655468225479 -0.9822902679443359 0.0
outer loop
vertex -35.351688385009766 37.09926986694336 0.0
vertex -36.8792839050293 37.39065170288086 0.0
vertex -35.351688385009766 37.09926986694336 -7.0
endloop
endfacet
facet normal -0.9822902679443359 -0.1873655468225479 0.0
outer loop
vertex -39.50168991088867 41.249271392822266 0.0
vertex -39.21031188964844 39.7216796875 -7.0
vertex -39.21031188964844 39.7216796875 0.0
endloop
endfacet
facet normal -0.9822902679443359 -0.1873655468225479 0.0
outer loop
vertex -39.50168991088867 41.249271392822266 -7.0
vertex -39.21031188964844 39.7216796875 -7.0
vertex -39.50168991088867 41.249271392822266 0.0
endloop
endfacet
facet normal -0.8358161449432373 0.549009382724762 -9.508316009543272e-12
outer loop
vertex -38.28618240356445 44.18376541137695 0.0
vertex -39.21031188964844 42.77686309814453 -7.0
vertex -39.21031188964844 42.77686309814453 0.0
endloop
endfacet
facet normal -0.8358161449432373 0.549009382724762 -2.6382609323512577e-16
outer loop
vertex -38.28618240356445 44.18376541137695 -7.0
vertex -39.21031188964844 42.77686309814453 -7.0
vertex -38.28618240356445 44.18376541137695 0.0
endloop
endfacet
facet normal -0.549009382724762 0.8358161449432373 -1.139530788116629e-15
outer loop
vertex -36.8792839050293 45.10789108276367 0.0
vertex -38.28618240356445 44.18376541137695 -7.0
vertex -38.28618240356445 44.18376541137695 0.0
endloop
endfacet
facet normal -0.549009382724762 0.8358161449432373 -5.653416056726013e-16
outer loop
vertex -36.8792839050293 45.10789108276367 -7.0
vertex -38.28618240356445 44.18376541137695 -7.0
vertex -36.8792839050293 45.10789108276367 0.0
endloop
endfacet
facet normal -0.9822902679443359 0.1873655468225479 8.78321720909625e-12
outer loop
vertex -39.50168991088867 41.249271392822266 -7.0
vertex -39.21031188964844 42.77686309814453 0.0
vertex -39.21031188964844 42.77686309814453 -7.0
endloop
endfacet
facet normal -0.9822902679443359 0.1873655468225479 0.0
outer loop
vertex -39.50168991088867 41.249271392822266 0.0
vertex -39.21031188964844 42.77686309814453 0.0
vertex -39.50168991088867 41.249271392822266 -7.0
endloop
endfacet
facet normal 0.0 0.0 -1.0
outer loop
vertex -32.417198181152344 38.31477737426758 -7.0
vertex -39.50168991088867 41.249271392822266 -7.0
vertex -31.49306869506836 39.7216796875 -7.0
endloop
endfacet
facet normal -0.1873655468225479 0.9822902679443359 0.0
outer loop
vertex -35.351688385009766 45.39927291870117 -7.0
vertex -36.8792839050293 45.10789108276367 -7.0
vertex -35.351688385009766 45.39927291870117 0.0
endloop
endfacet
facet normal 0.549009382724762 0.8358161449432373 -9.5088988766312e-12
outer loop
vertex -32.417198181152344 44.18376541137695 0.0
vertex -33.8240966796875 45.10789108276367 -7.0
vertex -33.8240966796875 45.10789108276367 0.0
endloop
endfacet
facet normal 0.549009382724762 0.8358161449432373 1.696024869957363e-15
outer loop
vertex -32.417198181152344 44.18376541137695 -7.0
vertex -33.8240966796875 45.10789108276367 -7.0
vertex -32.417198181152344 44.18376541137695 0.0
endloop
endfacet
facet normal 0.8358161449432373 0.549009382724762 1.1145561275459543e-15
outer loop
vertex -31.49306869506836 42.77686309814453 0.0
vertex -32.417198181152344 44.18376541137695 -7.0
vertex -32.417198181152344 44.18376541137695 0.0
endloop
endfacet
facet normal 0.8358161449432373 0.549009382724762 8.103229628367726e-16
outer loop
vertex -31.49306869506836 42.77686309814453 -7.0
vertex -32.417198181152344 44.18376541137695 -7.0
vertex -31.49306869506836 42.77686309814453 0.0
endloop
endfacet
facet normal 0.1873655468225479 0.9822902679443359 8.781603048901854e-12
outer loop
vertex -35.351688385009766 45.39927291870117 -7.0
vertex -33.8240966796875 45.10789108276367 0.0
vertex -33.8240966796875 45.10789108276367 -7.0
endloop
endfacet
facet normal 0.1873655468225479 0.9822902679443359 0.0
outer loop
vertex -35.351688385009766 45.39927291870117 0.0
vertex -33.8240966796875 45.10789108276367 0.0
vertex -35.351688385009766 45.39927291870117 -7.0
endloop
endfacet
facet normal 0.9822902679443359 0.1873655468225479 -4.2652217004048205e-16
outer loop
vertex -31.201690673828125 41.249271392822266 0.0
vertex -31.49306869506836 42.77686309814453 -7.0
vertex -31.49306869506836 42.77686309814453 0.0
endloop
endfacet
facet normal 0.9822902679443359 0.1873655468225479 0.0
outer loop
vertex -31.201690673828125 41.249271392822266 -7.0
vertex -31.49306869506836 42.77686309814453 -7.0
vertex -31.201690673828125 41.249271392822266 0.0
endloop
endfacet
facet normal 0.0 -0.0 1.0
outer loop
vertex -39.21031188964844 42.77686309814453 14.0
vertex -33.8240966796875 45.10789108276367 14.0
vertex -38.28618240356445 44.18376541137695 14.0
endloop
endfacet
facet normal 0.8358161449432373 0.549009382724762 9.507625589599833e-12
outer loop
vertex -32.417198181152344 44.18376541137695 7.0
vertex -31.49306869506836 42.77686309814453 14.0
vertex -31.49306869506836 42.77686309814453 7.0
endloop
endfacet
facet normal 0.8358161449432373 0.549009382724762 5.841863417435558e-16
outer loop
vertex -32.417198181152344 44.18376541137695 14.0
vertex -31.49306869506836 42.77686309814453 14.0
vertex -32.417198181152344 44.18376541137695 7.0
endloop
endfacet
facet normal 0.549009382724762 0.8358161449432373 -5.82252777283211e-16
outer loop
vertex -33.8240966796875 45.10789108276367 7.0
vertex -32.417198181152344 44.18376541137695 14.0
vertex -32.417198181152344 44.18376541137695 7.0
endloop
endfacet
facet normal 0.549009382724762 0.8358161449432373 -9.503939302213382e-12
outer loop
vertex -33.8240966796875 45.10789108276367 14.0
vertex -32.417198181152344 44.18376541137695 14.0
vertex -33.8240966796875 45.10789108276367 7.0
endloop
endfacet
facet normal 0.9822902679443359 0.1873655468225479 -8.783099247899884e-12
outer loop
vertex -31.201690673828125 41.249271392822266 14.0
vertex -31.49306869506836 42.77686309814453 7.0
vertex -31.49306869506836 42.77686309814453 14.0
endloop
endfacet
facet normal 0.9822902679443359 0.1873655468225479 0.0
outer loop
vertex -31.201690673828125 41.249271392822266 7.0
vertex -31.49306869506836 42.77686309814453 7.0
vertex -31.201690673828125 41.249271392822266 14.0
endloop
endfacet
facet normal 0.1873655468225479 0.9822902679443359 8.780467672386827e-12
outer loop
vertex -35.351688385009766 45.39927291870117 7.0
vertex -33.8240966796875 45.10789108276367 14.0
vertex -33.8240966796875 45.10789108276367 7.0
endloop
endfacet
facet normal 0.1873655468225479 0.9822902679443359 0.0
outer loop
vertex -35.351688385009766 45.39927291870117 14.0
vertex -33.8240966796875 45.10789108276367 14.0
vertex -35.351688385009766 45.39927291870117 7.0
endloop
endfacet
facet normal 0.0 -0.0 1.0
outer loop
vertex -38.28618240356445 44.18376541137695 14.0
vertex -35.351688385009766 45.39927291870117 14.0
vertex -36.8792839050293 45.10789108276367 14.0
endloop
endfacet
facet normal 0.0 0.0 1.0
outer loop
vertex -33.8240966796875 45.10789108276367 14.0
vertex -35.351688385009766 45.39927291870117 14.0
vertex -38.28618240356445 44.18376541137695 14.0
endloop
endfacet
facet normal -0.9822902679443359 0.1873655468225479 0.0
outer loop
vertex -39.50168991088867 41.249271392822266 14.0
vertex -39.21031188964844 42.77686309814453 14.0
vertex -39.50168991088867 41.249271392822266 7.0
endloop
endfacet
facet normal 0.0 0.0 1.0
outer loop
vertex -32.417198181152344 44.18376541137695 14.0
vertex -33.8240966796875 45.10789108276367 14.0
vertex -39.21031188964844 42.77686309814453 14.0
endloop
endfacet
facet normal 0.0 -0.0 1.0
outer loop
vertex -39.50168991088867 41.249271392822266 14.0
vertex -32.417198181152344 44.18376541137695 14.0
vertex -39.21031188964844 42.77686309814453 14.0
endloop
endfacet
facet normal 0.0 0.0 1.0
outer loop
vertex -31.49306869506836 42.77686309814453 14.0
vertex -32.417198181152344 44.18376541137695 14.0
vertex -39.50168991088867 41.249271392822266 14.0
endloop
endfacet
facet normal -4.280378031506956e-16 2.2440484105673173e-15 1.0
outer loop
vertex -39.21031188964844 39.7216796875 14.0
vertex -31.49306869506836 42.77686309814453 14.0
vertex -39.50168991088867 41.249271392822266 14.0
endloop
endfacet
facet normal -9.954848823497944e-31 1.1628468522974613e-15 1.0
outer loop
vertex -31.201690673828125 41.249271392822266 14.0
vertex -31.49306869506836 42.77686309814453 14.0
vertex -39.21031188964844 39.7216796875 14.0
endloop
endfacet
facet normal 6.25147372765116e-16 -2.1145760364477085e-15 1.0
outer loop
vertex -38.28618240356445 38.31477737426758 14.0
vertex -31.201690673828125 41.249271392822266 14.0
vertex -39.21031188964844 39.7216796875 14.0
endloop
endfacet
facet normal 2.507387459857772e-16 -1.210673720631228e-15 1.0
outer loop
vertex -31.49306869506836 39.7216796875 14.0
vertex -31.201690673828125 41.249271392822266 14.0
vertex -38.28618240356445 38.31477737426758 14.0
endloop
endfacet
facet normal 3.02668430157807e-16 -1.461412413677446e-15 1.0
outer loop
vertex -36.8792839050293 37.39065170288086 14.0
vertex -31.49306869506836 39.7216796875 14.0
vertex -38.28618240356445 38.31477737426758 14.0
endloop
endfacet
facet normal -4.607847586360369e-16 3.02668430157807e-16 1.0
outer loop
vertex -32.417198181152344 38.31477737426758 14.0
vertex -31.49306869506836 39.7216796875 14.0
vertex -36.8792839050293 37.39065170288086 14.0
endloop
endfacet
facet normal -0.9822902679443359 -0.1873655468225479 0.0
outer loop
vertex -39.50168991088867 41.249271392822266 7.0
vertex -39.21031188964844 39.7216796875 7.0
vertex -39.50168991088867 41.249271392822266 14.0
endloop
endfacet
facet normal 5.229874701506037e-16 1.262603404803258e-15 -1.0
outer loop
vertex -39.21031188964844 39.7216796875 -7.0
vertex -39.50168991088867 41.249271392822266 -7.0
vertex -32.417198181152344 38.31477737426758 -7.0
endloop
endfacet
facet normal 3.5014325042287127e-16 4.280378031506956e-16 -1.0
outer loop
vertex -33.8240966796875 37.39065170288086 -7.0
vertex -39.21031188964844 39.7216796875 -7.0
vertex -32.417198181152344 38.31477737426758 -7.0
endloop
endfacet
facet normal -5.330608094758255e-16 -1.61274660228657e-15 -1.0
outer loop
vertex -38.28618240356445 38.31477737426758 -7.0
vertex -39.21031188964844 39.7216796875 -7.0
vertex -33.8240966796875 37.39065170288086 -7.0
endloop
endfacet
facet normal -3.981000853744824e-16 -9.610986390963007e-16 -1.0
outer loop
vertex -35.351688385009766 37.09926986694336 -7.0
vertex -38.28618240356445 38.31477737426758 -7.0
vertex -33.8240966796875 37.39065170288086 -7.0
endloop
endfacet
facet normal 0.0 0.0 -1.0
outer loop
vertex -36.8792839050293 37.39065170288086 -7.0
vertex -38.28618240356445 38.31477737426758 -7.0
vertex -35.351688385009766 37.09926986694336 -7.0
endloop
endfacet
facet normal -0.8358161449432373 -0.549009382724762 9.507201449709957e-12
outer loop
vertex -38.28618240356445 38.31477737426758 7.0
vertex -39.21031188964844 39.7216796875 14.0
vertex -39.21031188964844 39.7216796875 7.0
endloop
endfacet
facet normal -0.8358161449432373 -0.549009382724762 1.4321987767222373e-15
outer loop
vertex -38.28618240356445 38.31477737426758 14.0
vertex -39.21031188964844 39.7216796875 14.0
vertex -38.28618240356445 38.31477737426758 7.0
endloop
endfacet
facet normal -0.549009382724762 -0.8358161449432373 -2.4974695312260366e-17
outer loop
vertex -36.8792839050293 37.39065170288086 7.0
vertex -38.28618240356445 38.31477737426758 14.0
vertex -38.28618240356445 38.31477737426758 7.0
endloop
endfacet
facet normal -0.549009382724762 -0.8358161449432373 -9.505050392599745e-12
outer loop
vertex -36.8792839050293 37.39065170288086 14.0
vertex -38.28618240356445 38.31477737426758 14.0
vertex -36.8792839050293 37.39065170288086 7.0
endloop
endfacet
facet normal -0.9822902679443359 -0.1873655468225479 -8.783597980899227e-12
outer loop
vertex -39.50168991088867 41.249271392822266 14.0
vertex -39.21031188964844 39.7216796875 7.0
vertex -39.21031188964844 39.7216796875 14.0
endloop
endfacet
facet normal -0.0 -0.0 -1.0
outer loop
vertex -29.765789031982422 40.5226936340332 -14.0
vertex -28.93499183654785 38.63673400878906 -14.0
vertex -31.265789031982422 40.5226936340332 -14.0
endloop
endfacet
facet normal -0.1873655468225479 -0.9822902679443359 8.780087767945588e-12
outer loop
vertex -35.351688385009766 37.09926986694336 7.0
vertex -36.8792839050293 37.39065170288086 14.0
vertex -36.8792839050293 37.39065170288086 7.0
endloop
endfacet
facet normal -0.1873655468225479 -0.9822902679443359 0.0
outer loop
vertex -35.351688385009766 37.09926986694336 14.0
vertex -36.8792839050293 37.39065170288086 14.0
vertex -35.351688385009766 37.09926986694336 7.0
endloop
endfacet
facet normal -0.549009382724762 0.8358161449432373 9.508316009543272e-12
outer loop
vertex -38.28618240356445 44.18376541137695 7.0
vertex -36.8792839050293 45.10789108276367 14.0
vertex -36.8792839050293 45.10789108276367 7.0
endloop
endfacet
facet normal -0.549009382724762 0.8358161449432373 0.0
outer loop
vertex -38.28618240356445 44.18376541137695 14.0
vertex -36.8792839050293 45.10789108276367 14.0
vertex -38.28618240356445 44.18376541137695 7.0
endloop
endfacet
facet normal -0.8358161449432373 0.549009382724762 0.0
outer loop
vertex -39.21031188964844 42.77686309814453 7.0
vertex -38.28618240356445 44.18376541137695 14.0
vertex -38.28618240356445 44.18376541137695 7.0
endloop
endfacet
facet normal -0.8358161449432373 0.549009382724762 -9.50533315252633e-12
outer loop
vertex -39.21031188964844 42.77686309814453 14.0
vertex -38.28618240356445 44.18376541137695 14.0
vertex -39.21031188964844 42.77686309814453 7.0
endloop
endfacet
facet normal -0.1873655468225479 0.9822902679443359 -8.78321720909625e-12
outer loop
vertex -35.351688385009766 45.39927291870117 14.0
vertex -36.8792839050293 45.10789108276367 7.0
vertex -36.8792839050293 45.10789108276367 14.0
endloop
endfacet
facet normal -0.1873655468225479 0.9822902679443359 0.0
outer loop
vertex -35.351688385009766 45.39927291870117 7.0
vertex -36.8792839050293 45.10789108276367 7.0
vertex -35.351688385009766 45.39927291870117 14.0
endloop
endfacet
facet normal -0.9822902679443359 0.1873655468225479 8.77928025416752e-12
outer loop
vertex -39.50168991088867 41.249271392822266 7.0
vertex -39.21031188964844 42.77686309814453 14.0
vertex -39.21031188964844 42.77686309814453 7.0
endloop
endfacet
endsolid test2.stl
